<svg width="18" height="18" viewBox="0 0 18 18" fill="none" xmlns="http://www.w3.org/2000/svg">
<path fill-rule="evenodd" clip-rule="evenodd" d="M8.99935 17.3337C13.6018 17.3337 17.3327 13.6028 17.3327 9.00033C17.3327 4.39783 13.6018 0.666992 8.99935 0.666992C4.39685 0.666992 0.666016 4.39783 0.666016 9.00033C0.666016 13.6028 4.39685 17.3337 8.99935 17.3337ZM4.91102 14.267L14.266 4.91199C15.2631 6.19463 15.7576 7.79724 15.6564 9.41871C15.5553 11.0402 14.8655 12.5689 13.7167 13.7177C12.5679 14.8665 11.0392 15.5562 9.41773 15.6574C7.79626 15.7585 6.19366 15.2641 4.91102 14.267ZM3.73268 13.0887C2.73557 11.806 2.24115 10.2034 2.3423 8.58194C2.44344 6.96047 3.1332 5.43174 4.28198 4.28296C5.43076 3.13418 6.9595 2.44442 8.58097 2.34327C10.2024 2.24212 11.805 2.73655 13.0877 3.73366L3.73268 13.0887Z" fill="#377CDB"/>
</svg>
